Coordinates
nRows=10
nColumns=38

# SIMM Motion File Header:
name Coordinates
datacolumns 38
datarows 10
otherdata 1
range 2.23750000000000030000 2.24650000000000020000

Units are S.I. units (second, meters, Newtons, ...)
Angles are in degrees.

endheader
time	pelvis_tilt	pelvis_list	pelvis_rotation	pelvis_tx	pelvis_ty	pelvis_tz	hip_flexion_r	hip_adduction_r	hip_rotation_r	knee_angle_r	ankle_angle_r	subtalar_angle_r	mtp_angle_r	hip_flexion_l	hip_adduction_l	hip_rotation_l	knee_angle_l	ankle_angle_l	subtalar_angle_l	mtp_angle_l	lumbar_extension	lumbar_bending	lumbar_rotation	arm_flex_r	arm_add_r	arm_rot_r	elbow_flex_r	pro_sup_r	wrist_flex_r	wrist_dev_r	arm_flex_l	arm_add_l	arm_rot_l	elbow_flex_l	pro_sup_l	wrist_flex_l	wrist_dev_l
      2.23750000000000030000	     -2.61847131860066980000	      2.63831896232592160000	      0.84042341258490627000	      0.94805290231837713000	      1.05601058852419370000	     -0.30771752613175268000	     -8.15666188543367630000	      2.60600618052173830000	      1.34734082627106020000	    -59.04076101239682100000	     -4.80821937224132070000	      0.00000000000008429016	      0.00000000000002157110	     22.51294302030144600000	      7.76641093681462640000	      2.76161048847938110000	    -12.87875470031688400000	     -7.78206894969787390000	      0.00000000000002833976	     -0.00000000000003008812	     -3.60226876402648430000	     -1.70275235878463360000	      9.77729219541005180000	    -23.26743454372630300000	    -13.89938295952787300000	      3.60729768471636270000	    127.56364870223375000000	     96.55445910345299900000	      0.00000000000000202167	      0.00000000000003022379	    -43.69629463737339100000	     -7.12243617949104820000	    -10.87835034098560300000	    132.70827381025396000000	     85.19338863477672400000	     -0.00000000000001410437	     -0.00000000000000920742
      2.23850000000000020000	     -2.61490431866738640000	      2.64303660104660310000	      0.89904877351595425000	      0.94800624131364108000	      1.05542425993881790000	     -0.30770887676208408000	     -7.94248543800076590000	      2.62638670119931740000	      1.30843719353189920000	    -59.58836719939320400000	     -4.70117280879866680000	      0.00000000000008458730	      0.00000000000002176523	     22.50207318849281200000	      7.82689699748545650000	      2.95235020911874320000	    -13.06011248410944400000	     -7.71869025545756760000	      0.00000000000002848087	     -0.00000000000003015653	     -3.61613993292511320000	     -1.73577294524792090000	      9.69449676699470690000	    -23.36742019741761600000	    -13.87095995239638800000	      3.48845175893188710000	    127.41933757191114000000	     96.54414170342116100000	      0.00000000000000203650	      0.00000000000003032554	    -43.57278144293790200000	     -7.18405381363184770000	    -10.86051594770173000000	    132.65330735790852000000	     85.16933807408190700000	     -0.00000000000001411560	     -0.00000000000000924694
      2.23950000000000000000	     -2.61115818749965590000	      2.64699960086745410000	      0.95835362488435161000	      0.94795754548369449000	      1.05482869447034110000	     -0.30770111222168650000	     -7.72681098198721280000	      2.64728620920368800000	      1.26846438598156960000	    -60.13563863799945600000	     -4.59648027037601550000	      0.00000000000008488419	      0.00000000000002195843	     22.49182001175698900000	      7.88772568933551370000	      3.14798013853044620000	    -13.24991394954645200000	     -7.64253952147164290000	      0.00000000000002862267	     -0.00000000000003022536	     -3.63056683929898360000	     -1.76790300070012570000	      9.61081071728598420000	    -23.46765968867457300000	    -13.84287095193579700000	      3.36969353042808000000	    127.27420534613402000000	     96.53312060279704100000	      0.00000000000000205110	      0.00000000000003042697	    -43.44734993638439800000	     -7.24748326313738560000	    -10.84165484261411500000	    132.59702404822849000000	     85.14501417576531100000	     -0.00000000000001412689	     -0.00000000000000928802
      2.24049999999999990000	     -2.60718043603810390000	      2.65027552235511350000	      1.01831429008128140000	      0.94790684452871032000	      1.05422398356038620000	     -0.30769432513426587000	     -7.50971509590862670000	      2.66855905858068400000	      1.22734692343266170000	    -60.68251815957387400000	     -4.49413402293409980000	      0.00000000000008518119	      0.00000000000002214984	     22.48211818252637100000	      7.94899031677301430000	      3.34807043546547640000	    -13.44813386759413000000	     -7.55292216017335250000	      0.00000000000002876510	     -0.00000000000003029528	     -3.64559926373521660000	     -1.79919901369633940000	      9.52621532403387410000	    -23.56810809123697200000	    -13.81516017730262300000	      3.25108469338726990000	    127.12828186419620000000	     96.52137085977729200000	      0.00000000000000206552	      0.00000000000003052797	    -43.32006346769225000000	     -7.31264326500029950000	    -10.82181911749882800000	    132.53943287923346000000	     85.12045192669630500000	     -0.00000000000001413761	     -0.00000000000000933018
      2.24150000000000030000	     -2.60298459377556530000	      2.65292770160651960000	      1.07889774143694940000	      0.94785413769519145000	      1.05361012148592390000	     -0.30768859890236855000	     -7.29119138996287400000	      2.69006270701474780000	      1.18502883713023420000	    -61.22897482793039400000	     -4.39412163823335610000	      0.00000000000008547626	      0.00000000000002234193	     22.47298735064245200000	      8.01077640540406930000	      3.55216789073529470000	    -13.65476318506568300000	     -7.44918931560217330000	      0.00000000000002890838	     -0.00000000000003036541	     -3.66121249673677560000	     -1.82971323961352580000	      9.44070406155587350000	    -23.66873046733756800000	    -13.78787151467232500000	      3.13268209189319390000	    126.98159228274471000000	     96.50887677202609900000	      0.00000000000000207986	      0.00000000000003062940	    -43.19099345532529100000	     -7.37945014181718670000	    -10.80106019766240300000	    132.48053656408865000000	     85.09568939972072600000	     -0.00000000000001414793	     -0.00000000000000937148
      2.24250000000000020000	     -2.59859466071070200000	      2.65501843301899590000	      1.14006117558430660000	      0.94779940768040716000	      1.05298709517158870000	     -0.30768400697117060000	     -7.07121843646153180000	      2.71165503481867990000	      1.14147165785155760000	    -61.77498610906923900000	     -4.29643031051359080000	      0.00000000000008577332	      0.00000000000002253329	     22.46446323428563100000	      8.07316461622684220000	      3.75979939172032830000	    -13.86979173985219700000	     -7.33076446468407370000	      0.00000000000002905177	     -0.00000000000003043512	     -3.67737148772892430000	     -1.85949664793335100000	      9.35428009610684800000	    -23.76949094203786900000	    -13.76105064715247500000	      3.01453706524472320000	    126.83415922357902000000	     96.49562890179508700000	      0.00000000000000209426	      0.00000000000003073162	    -43.06020867804902300000	     -7.44781757304899550000	    -10.77942795602214000000	    132.42033365737760000000	     85.07076676701963400000	     -0.00000000000001415813	     -0.00000000000000941358
      2.24350000000000000000	     -2.59408425583822670000	      2.65660540149192630000	      1.20175354887536740000	      0.94774261156911643000	      1.05235482291680520000	     -0.30768061419837001000	     -6.84971241657414250000	      2.73319792567045370000	      1.09665513820188680000	    -62.32054982938003500000	     -4.20104461763479090000	      0.00000000000008607128	      0.00000000000002272487	     22.45664559831671200000	      8.13622798826866500000	      3.97047384614258460000	    -14.09322040441935500000	     -7.19711920585443200000	      0.00000000000002919367	     -0.00000000000003050495	     -3.69398615331262590000	     -1.88859595872658390000	      9.26695689919834640000	    -23.87035990621145500000	    -13.73474330490571800000	      2.89669576845189130000	    126.68600058951841000000	     96.48162560215223500000	      0.00000000000000210865	      0.00000000000003083411	    -42.92778157742757400000	     -7.51765731652096040000	    -10.75697106567590700000	    132.35881639527713000000	     85.04572664495182700000	     -0.00000000000001416847	     -0.00000000000000945692
      2.24449999999999990000	     -2.58957072338054180000	      2.65774220611552710000	      1.26391707673429640000	      0.94768368247056722000	      1.05171316421216580000	     -0.30767847846324037000	     -6.62653490989293200000	      2.75455686514462660000	      1.05057540043781540000	    -62.86568172472642100000	     -4.10794695835856420000	      0.00000000000008636766	      0.00000000000002291642	     22.44969067300466400000	      8.20003309826252820000	      4.18368522585559970000	    -14.32505914914410500000	     -7.04777720348436980000	      0.00000000000002933741	     -0.00000000000003057509	     -3.71091837486490660000	     -1.91705450334566250000	      9.17875646617306630000	    -23.97131266417326500000	    -13.70899512772257500000	      2.77919921774619550000	    126.53712957167401000000	     96.46687221354272900000	      0.00000000000000212309	      0.00000000000003093596	    -42.79378687617747100000	     -7.58887964912374540000	    -10.73373697206357000000	    132.29597101454195000000	     85.02061357089502300000	     -0.00000000000001417879	     -0.00000000000000949977
      2.24550000000000030000	     -2.58521065582554230000	      2.65847567042443700000	      1.32648919037029180000	      0.94762252996007923000	      1.05106192757367700000	     -0.30767765282255827000	     -6.40149882925612970000	      2.77560434144539640000	      1.00324355399985050000	    -63.41041265772896900000	     -4.01711917324793970000	      0.00000000000008666375	      0.00000000000002310840	     22.44380589480406100000	      8.26463803279030710000	      4.39891663724299780000	    -14.56532653139990300000	     -6.88232086779150710000	      0.00000000000002947991	     -0.00000000000003064500	     -3.72798736012903700000	     -1.94490932870052570000	      9.08970737351182300000	    -24.07232848114647100000	    -13.68385217667136700000	      2.66208306950187620000	    126.38755487973268000000	     96.45138002310449100000	      0.00000000000000213764	      0.00000000000003103818	    -42.65830021630826300000	     -7.66139318032676540000	    -10.70977140924006000000	    132.23177753355398000000	     84.99547387939944100000	     -0.00000000000001418939	     -0.00000000000000954308
      2.24650000000000020000	     -2.58119447345344750000	      2.65884253167104760000	      1.38940459395457650000	      0.94755904062656893000	      1.05040088008094010000	     -0.30767818782058781000	     -6.17437541428125500000	      2.79622402196030470000	      0.95468427888819452000	    -63.95478527335448900000	     -3.92854448603920490000	      0.00000000000008695988	      0.00000000000002329979	     22.43924365306500600000	      8.33008969420727220000	      4.61564468731259580000	    -14.81404904298849900000	     -6.70039860660621760000	      0.00000000000002962390	     -0.00000000000003071598	     -3.74497600348004900000	     -1.97218749347957730000	      8.99984276077248070000	    -24.17338954491726400000	    -13.65936163497872400000	      2.54537734058719070000	    126.23728107054566000000	     96.43516512041206600000	      0.00000000000000215232	      0.00000000000003113975	    -42.52139664662873000000	     -7.73510446517152420000	    -10.68511778775943500000	    132.16620943275723000000	     84.97035565358430600000	     -0.00000000000001420025	     -0.00000000000000958667
